<svg id="visual" viewBox="0 0 900 600" width="900" height="600" xmlns="http://www.w3.org/2000/svg" xmlns:xlink="http://www.w3.org/1999/xlink" version="1.1"><g stroke-width="1" stroke-linejoin="bevel"><path d="M440 300L435 317.9L456 318Z" fill="#001568" stroke="#001568"></path><path d="M456 318L488 313.9L440 300Z" fill="#001d8c" stroke="#001d8c"></path><path d="M435 317.9L467 360.7L456 318Z" fill="#00219e" stroke="#00219e"></path><path d="M456 318L467 360.7L488 313.9Z" fill="#0032eb" stroke="#0032eb"></path><path d="M387 331.9L421 365.7L435 317.9Z" fill="#001568" stroke="#001568"></path><path d="M435 317.9L421 365.7L467 360.7Z" fill="#001057" stroke="#001057"></path><path d="M440 300L387 331.9L435 317.9Z" fill="#0032eb" stroke="#0032eb"></path><path d="M467 360.7L501 342.9L488 313.9Z" fill="#002ac4" stroke="#002ac4"></path><path d="M457 242.3L427 247.1L440 300Z" fill="#001568" stroke="#001568"></path><path d="M440 300L364 299L387 331.9Z" fill="#0032eb" stroke="#0032eb"></path><path d="M519 266L457 242.3L488 313.9Z" fill="#000b46" stroke="#000b46"></path><path d="M488 313.9L457 242.3L440 300Z" fill="#001057" stroke="#001057"></path><path d="M457 242.3L428 240.3L427 247.1Z" fill="#002ac4" stroke="#002ac4"></path><path d="M373 251.1L364 299L440 300Z" fill="#0032eb" stroke="#0032eb"></path><path d="M501 342.9L521 323.9L488 313.9Z" fill="#00219e" stroke="#00219e"></path><path d="M373 251.1L440 300L427 247.1Z" fill="#001057" stroke="#001057"></path><path d="M438 217.3L425 230.1L428 240.3Z" fill="#001d8c" stroke="#001d8c"></path><path d="M428 240.3L425 230.1L427 247.1Z" fill="#001057" stroke="#001057"></path><path d="M521 323.9L519 266L488 313.9Z" fill="#020036" stroke="#020036"></path><path d="M425 230.1L373 251.1L427 247.1Z" fill="#020036" stroke="#020036"></path><path d="M517 184.3L438 217.3L457 242.3Z" fill="#020036" stroke="#020036"></path><path d="M457 242.3L438 217.3L428 240.3Z" fill="#000b46" stroke="#000b46"></path><path d="M425 230.1L399 209.3L373 251.1Z" fill="#0032eb" stroke="#0032eb"></path><path d="M485 418.7L518 376.7L467 360.7Z" fill="#002ac4" stroke="#002ac4"></path><path d="M467 360.7L518 376.7L501 342.9Z" fill="#020036" stroke="#020036"></path><path d="M501 342.9L518 376.7L521 323.9Z" fill="#002ed7" stroke="#002ed7"></path><path d="M521 323.9L541 275.1L519 266Z" fill="#002ed7" stroke="#002ed7"></path><path d="M519 266L532 227.1L457 242.3Z" fill="#002ac4" stroke="#002ac4"></path><path d="M550 286L541 275.1L521 323.9Z" fill="#001057" stroke="#001057"></path><path d="M324 390.7L422 413.6L421 365.7Z" fill="#001d8c" stroke="#001d8c"></path><path d="M421 365.7L422 413.6L467 360.7Z" fill="#002ed7" stroke="#002ed7"></path><path d="M324 390.7L421 365.7L387 331.9Z" fill="#0025b1" stroke="#0025b1"></path><path d="M555 283.1L550 286L578 336.9Z" fill="#002ac4" stroke="#002ac4"></path><path d="M438 217.3L399 209.3L425 230.1Z" fill="#0032eb" stroke="#0032eb"></path><path d="M578 336.9L550 286L521 323.9Z" fill="#00219e" stroke="#00219e"></path><path d="M550 286L555 283.1L541 275.1Z" fill="#001d8c" stroke="#001d8c"></path><path d="M422 413.6L485 418.7L467 360.7Z" fill="#020036" stroke="#020036"></path><path d="M556 245.3L519 266L541 275.1Z" fill="#002ed7" stroke="#002ed7"></path><path d="M556 245.3L532 227.1L519 266Z" fill="#001d8c" stroke="#001d8c"></path><path d="M438 217.3L432 166.4L399 209.3Z" fill="#002ed7" stroke="#002ed7"></path><path d="M373 251.1L324 295.1L364 299Z" fill="#00219e" stroke="#00219e"></path><path d="M364 299L315 319L387 331.9Z" fill="#001568" stroke="#001568"></path><path d="M279 277.1L324 295.1L373 251.1Z" fill="#020036" stroke="#020036"></path><path d="M555 283.1L556 245.3L541 275.1Z" fill="#020036" stroke="#020036"></path><path d="M324 295.1L315 319L364 299Z" fill="#001057" stroke="#001057"></path><path d="M422 413.6L472 440.4L485 418.7Z" fill="#020036" stroke="#020036"></path><path d="M572 389.6L578 336.9L518 376.7Z" fill="#001057" stroke="#001057"></path><path d="M557 405.6L518 376.7L485 418.7Z" fill="#001057" stroke="#001057"></path><path d="M518 376.7L578 336.9L521 323.9Z" fill="#0025b1" stroke="#0025b1"></path><path d="M555 283.1L595 241.3L556 245.3Z" fill="#000b46" stroke="#000b46"></path><path d="M381 454.6L429 445.6L422 413.6Z" fill="#000b46" stroke="#000b46"></path><path d="M422 413.6L429 445.6L472 440.4Z" fill="#0025b1" stroke="#0025b1"></path><path d="M464 493.3L490 447.6L472 440.4Z" fill="#0025b1" stroke="#0025b1"></path><path d="M472 440.4L490 447.6L485 418.7Z" fill="#00219e" stroke="#00219e"></path><path d="M315 319L324 390.7L387 331.9Z" fill="#00219e" stroke="#00219e"></path><path d="M556 245.3L536 197.4L532 227.1Z" fill="#001d8c" stroke="#001d8c"></path><path d="M532 227.1L517 184.3L457 242.3Z" fill="#020036" stroke="#020036"></path><path d="M517 184.3L432 166.4L438 217.3Z" fill="#002ac4" stroke="#002ac4"></path><path d="M399 209.3L375 179.4L373 251.1Z" fill="#00219e" stroke="#00219e"></path><path d="M536 197.4L517 184.3L532 227.1Z" fill="#001057" stroke="#001057"></path><path d="M490 447.6L557 405.6L485 418.7Z" fill="#00219e" stroke="#00219e"></path><path d="M557 405.6L572 389.6L518 376.7Z" fill="#020036" stroke="#020036"></path><path d="M432 166.4L375 179.4L399 209.3Z" fill="#0032eb" stroke="#0032eb"></path><path d="M324 390.7L381 454.6L422 413.6Z" fill="#0025b1" stroke="#0025b1"></path><path d="M429 445.6L453 491.3L472 440.4Z" fill="#00197a" stroke="#00197a"></path><path d="M280 344.9L291 353.7L315 319Z" fill="#000b46" stroke="#000b46"></path><path d="M315 319L291 353.7L324 390.7Z" fill="#001057" stroke="#001057"></path><path d="M280 344.9L315 319L270 293Z" fill="#002ed7" stroke="#002ed7"></path><path d="M291 353.7L310 398.7L324 390.7Z" fill="#020036" stroke="#020036"></path><path d="M324 390.7L320 450.4L381 454.6Z" fill="#020036" stroke="#020036"></path><path d="M624 270L595 241.3L555 283.1Z" fill="#020036" stroke="#020036"></path><path d="M556 245.3L595 241.3L536 197.4Z" fill="#001057" stroke="#001057"></path><path d="M624 270L555 283.1L578 336.9Z" fill="#001568" stroke="#001568"></path><path d="M377 116.7L386 154.4L390 108.6Z" fill="#002ac4" stroke="#002ac4"></path><path d="M432 166.4L386 154.4L375 179.4Z" fill="#001d8c" stroke="#001d8c"></path><path d="M270 293L315 319L324 295.1Z" fill="#020036" stroke="#020036"></path><path d="M279 277.1L373 251.1L309 180.3Z" fill="#020036" stroke="#020036"></path><path d="M291 353.7L280 410.6L310 398.7Z" fill="#001057" stroke="#001057"></path><path d="M337 179.4L373 251.1L375 179.4Z" fill="#002ed7" stroke="#002ed7"></path><path d="M386 154.4L337 179.4L375 179.4Z" fill="#0025b1" stroke="#0025b1"></path><path d="M536 197.4L525 157.4L517 184.3Z" fill="#0032eb" stroke="#0032eb"></path><path d="M517 184.3L460 138.6L432 166.4Z" fill="#0032eb" stroke="#0032eb"></path><path d="M581 165.4L525 157.4L536 197.4Z" fill="#001568" stroke="#001568"></path><path d="M489 132.6L460 138.6L517 184.3Z" fill="#001568" stroke="#001568"></path><path d="M598 400.7L614 361.7L572 389.6Z" fill="#020036" stroke="#020036"></path><path d="M572 389.6L614 361.7L578 336.9Z" fill="#0025b1" stroke="#0025b1"></path><path d="M279 277.1L270 293L324 295.1Z" fill="#00197a" stroke="#00197a"></path><path d="M557 405.6L598 400.7L572 389.6Z" fill="#000b46" stroke="#000b46"></path><path d="M579 449.4L598 400.7L557 405.6Z" fill="#002ac4" stroke="#002ac4"></path><path d="M357 496.4L405 483.4L381 454.6Z" fill="#002ac4" stroke="#002ac4"></path><path d="M381 454.6L405 483.4L429 445.6Z" fill="#00197a" stroke="#00197a"></path><path d="M405 483.4L420 487.3L429 445.6Z" fill="#002ac4" stroke="#002ac4"></path><path d="M490 447.6L579 449.4L557 405.6Z" fill="#001d8c" stroke="#001d8c"></path><path d="M420 487.3L453 491.3L429 445.6Z" fill="#001d8c" stroke="#001d8c"></path><path d="M410 517.1L464 493.3L453 491.3Z" fill="#001d8c" stroke="#001d8c"></path><path d="M453 491.3L464 493.3L472 440.4Z" fill="#00219e" stroke="#00219e"></path><path d="M614 361.7L624 270L578 336.9Z" fill="#00219e" stroke="#00219e"></path><path d="M595 241.3L581 165.4L536 197.4Z" fill="#001057" stroke="#001057"></path><path d="M525 157.4L489 132.6L517 184.3Z" fill="#001d8c" stroke="#001d8c"></path><path d="M270 293L261 332.9L280 344.9Z" fill="#000b46" stroke="#000b46"></path><path d="M280 344.9L280 410.6L291 353.7Z" fill="#002ac4" stroke="#002ac4"></path><path d="M280 410.6L320 450.4L310 398.7Z" fill="#0032eb" stroke="#0032eb"></path><path d="M310 398.7L320 450.4L324 390.7Z" fill="#002ed7" stroke="#002ed7"></path><path d="M322 166.6L309 180.3L337 179.4Z" fill="#001568" stroke="#001568"></path><path d="M337 179.4L309 180.3L373 251.1Z" fill="#001d8c" stroke="#001d8c"></path><path d="M279 277.1L211 270L270 293Z" fill="#001057" stroke="#001057"></path><path d="M339 114.6L322 166.6L337 179.4Z" fill="#001d8c" stroke="#001d8c"></path><path d="M339 114.6L337 179.4L386 154.4Z" fill="#0032eb" stroke="#0032eb"></path><path d="M386 154.4L432 166.4L390 108.6Z" fill="#001d8c" stroke="#001d8c"></path><path d="M531 508.3L579 449.4L490 447.6Z" fill="#0025b1" stroke="#0025b1"></path><path d="M668 325.9L624 270L614 361.7Z" fill="#001568" stroke="#001568"></path><path d="M405 483.4L417 501.4L420 487.3Z" fill="#020036" stroke="#020036"></path><path d="M420 487.3L417 501.4L453 491.3Z" fill="#020036" stroke="#020036"></path><path d="M410 517.1L417 501.4L405 483.4Z" fill="#002ac4" stroke="#002ac4"></path><path d="M261 332.9L280 410.6L280 344.9Z" fill="#0032eb" stroke="#0032eb"></path><path d="M668 325.9L639 269L624 270Z" fill="#001d8c" stroke="#001d8c"></path><path d="M624 270L635 246.3L595 241.3Z" fill="#001057" stroke="#001057"></path><path d="M616 179.4L581 165.4L595 241.3Z" fill="#000b46" stroke="#000b46"></path><path d="M525 157.4L579 102.6L489 132.6Z" fill="#001568" stroke="#001568"></path><path d="M639 269L635 246.3L624 270Z" fill="#0032eb" stroke="#0032eb"></path><path d="M320 450.4L357 496.4L381 454.6Z" fill="#00219e" stroke="#00219e"></path><path d="M327 498.3L357 496.4L320 450.4Z" fill="#000b46" stroke="#000b46"></path><path d="M390 108.6L432 166.4L460 138.6Z" fill="#0025b1" stroke="#0025b1"></path><path d="M639 269L646 252.1L635 246.3Z" fill="#020036" stroke="#020036"></path><path d="M635 246.3L616 179.4L595 241.3Z" fill="#001d8c" stroke="#001d8c"></path><path d="M658 272L646 252.1L639 269Z" fill="#00219e" stroke="#00219e"></path><path d="M357 496.4L410 517.1L405 483.4Z" fill="#020036" stroke="#020036"></path><path d="M417 501.4L410 517.1L453 491.3Z" fill="#00197a" stroke="#00197a"></path><path d="M464 493.3L531 508.3L490 447.6Z" fill="#002ed7" stroke="#002ed7"></path><path d="M417 60.9L390 108.6L460 138.6Z" fill="#002ac4" stroke="#002ac4"></path><path d="M526 553.1L531 508.3L464 493.3Z" fill="#000b46" stroke="#000b46"></path><path d="M701 184.4L616 179.4L635 246.3Z" fill="#002ac4" stroke="#002ac4"></path><path d="M668 325.9L614 361.7L664 375.9Z" fill="#020036" stroke="#020036"></path><path d="M668 325.9L658 272L639 269Z" fill="#020036" stroke="#020036"></path><path d="M646 252.1L701 184.4L635 246.3Z" fill="#001568" stroke="#001568"></path><path d="M265 502.3L327 498.3L320 450.4Z" fill="#0025b1" stroke="#0025b1"></path><path d="M357 496.4L342 520.3L410 517.1Z" fill="#00219e" stroke="#00219e"></path><path d="M664 375.9L614 361.7L598 400.7Z" fill="#0032eb" stroke="#0032eb"></path><path d="M257 184.4L309 180.3L248 163.6Z" fill="#001057" stroke="#001057"></path><path d="M257 184.4L250 203.4L309 180.3Z" fill="#001d8c" stroke="#001d8c"></path><path d="M309 180.3L250 203.4L279 277.1Z" fill="#002ac4" stroke="#002ac4"></path><path d="M270 293L199 285.1L261 332.9Z" fill="#020036" stroke="#020036"></path><path d="M351 87.7L339 114.6L377 116.7Z" fill="#002ed7" stroke="#002ed7"></path><path d="M377 116.7L339 114.6L386 154.4Z" fill="#002ed7" stroke="#002ed7"></path><path d="M595 497.3L598 478.4L579 449.4Z" fill="#0032eb" stroke="#0032eb"></path><path d="M579 449.4L665 422.6L598 400.7Z" fill="#00219e" stroke="#00219e"></path><path d="M248 163.6L309 180.3L252 125.6Z" fill="#001d8c" stroke="#001d8c"></path><path d="M665 422.6L664 375.9L598 400.7Z" fill="#00219e" stroke="#00219e"></path><path d="M257 184.4L245 197.3L250 203.4Z" fill="#002ac4" stroke="#002ac4"></path><path d="M250 203.4L221 235.3L279 277.1Z" fill="#000b46" stroke="#000b46"></path><path d="M327 498.3L342 520.3L357 496.4Z" fill="#002ed7" stroke="#002ed7"></path><path d="M245 197.3L221 235.3L250 203.4Z" fill="#0025b1" stroke="#0025b1"></path><path d="M204 401.7L217 417.6L280 410.6Z" fill="#00197a" stroke="#00197a"></path><path d="M221 235.3L211 270L279 277.1Z" fill="#00219e" stroke="#00219e"></path><path d="M531 508.3L595 497.3L579 449.4Z" fill="#002ed7" stroke="#002ed7"></path><path d="M662 462.4L665 422.6L579 449.4Z" fill="#002ed7" stroke="#002ed7"></path><path d="M668 325.9L686 309.9L658 272Z" fill="#002ed7" stroke="#002ed7"></path><path d="M658 272L693 267.1L646 252.1Z" fill="#001568" stroke="#001568"></path><path d="M713 362.7L686 309.9L668 325.9Z" fill="#0032eb" stroke="#0032eb"></path><path d="M417 60.9L351 87.7L390 108.6Z" fill="#020036" stroke="#020036"></path><path d="M390 108.6L351 87.7L377 116.7Z" fill="#00219e" stroke="#00219e"></path><path d="M252 125.6L309 180.3L322 166.6Z" fill="#001d8c" stroke="#001d8c"></path><path d="M662 462.4L579 449.4L598 478.4Z" fill="#0025b1" stroke="#0025b1"></path><path d="M664 375.9L713 362.7L668 325.9Z" fill="#00219e" stroke="#00219e"></path><path d="M197 175.4L202 238.1L221 235.3Z" fill="#00197a" stroke="#00197a"></path><path d="M257 184.4L248 163.6L245 197.3Z" fill="#0025b1" stroke="#0025b1"></path><path d="M252 125.6L322 166.6L339 114.6Z" fill="#001057" stroke="#001057"></path><path d="M602 94.7L579 102.6L581 165.4Z" fill="#000b46" stroke="#000b46"></path><path d="M581 165.4L579 102.6L525 157.4Z" fill="#002ac4" stroke="#002ac4"></path><path d="M447 53.7L417 60.9L460 138.6Z" fill="#00197a" stroke="#00197a"></path><path d="M581 99.6L579 102.6L602 94.7Z" fill="#001568" stroke="#001568"></path><path d="M192 273L199 285.1L211 270Z" fill="#00197a" stroke="#00197a"></path><path d="M211 270L199 285.1L270 293Z" fill="#00197a" stroke="#00197a"></path><path d="M280 410.6L233 449.6L320 450.4Z" fill="#001d8c" stroke="#001d8c"></path><path d="M202 238.1L211 270L221 235.3Z" fill="#001d8c" stroke="#001d8c"></path><path d="M669 457.6L672 415.7L665 422.6Z" fill="#020036" stroke="#020036"></path><path d="M665 422.6L672 415.7L664 375.9Z" fill="#001d8c" stroke="#001d8c"></path><path d="M602 94.7L581 165.4L616 179.4Z" fill="#001057" stroke="#001057"></path><path d="M474 50.9L460 138.6L489 132.6Z" fill="#000b46" stroke="#000b46"></path><path d="M728 279L693 267.1L686 309.9Z" fill="#0025b1" stroke="#0025b1"></path><path d="M686 309.9L693 267.1L658 272Z" fill="#0025b1" stroke="#0025b1"></path><path d="M447 53.7L460 138.6L474 50.9Z" fill="#002ac4" stroke="#002ac4"></path><path d="M204 401.7L280 410.6L261 332.9Z" fill="#020036" stroke="#020036"></path><path d="M327 498.3L326 540.1L342 520.3Z" fill="#00197a" stroke="#00197a"></path><path d="M217 417.6L233 449.6L280 410.6Z" fill="#002ac4" stroke="#002ac4"></path><path d="M197 175.4L221 235.3L245 197.3Z" fill="#001568" stroke="#001568"></path><path d="M477 592.1L526 553.1L464 493.3Z" fill="#0025b1" stroke="#0025b1"></path><path d="M531 508.3L526 553.1L595 497.3Z" fill="#00219e" stroke="#00219e"></path><path d="M477 592.1L464 493.3L410 517.1Z" fill="#00219e" stroke="#00219e"></path><path d="M202 238.1L192 273L211 270Z" fill="#0025b1" stroke="#0025b1"></path><path d="M186 325.9L204 401.7L261 332.9Z" fill="#002ed7" stroke="#002ed7"></path><path d="M474 50.9L489 132.6L496 52.7Z" fill="#001057" stroke="#001057"></path><path d="M186 325.9L261 332.9L199 285.1Z" fill="#001568" stroke="#001568"></path><path d="M185 454.6L239 488.4L233 449.6Z" fill="#00197a" stroke="#00197a"></path><path d="M265 502.3L326 540.1L327 498.3Z" fill="#000b46" stroke="#000b46"></path><path d="M342 520.3L387 582.1L410 517.1Z" fill="#000b46" stroke="#000b46"></path><path d="M176 323.9L186 325.9L199 285.1Z" fill="#0032eb" stroke="#0032eb"></path><path d="M496 52.7L489 132.6L579 102.6Z" fill="#020036" stroke="#020036"></path><path d="M233 449.6L265 502.3L320 450.4Z" fill="#0032eb" stroke="#0032eb"></path><path d="M569 51.7L496 52.7L579 102.6Z" fill="#001d8c" stroke="#001d8c"></path><path d="M645 500.4L662 462.4L598 478.4Z" fill="#0032eb" stroke="#0032eb"></path><path d="M645 500.4L598 478.4L595 497.3Z" fill="#001057" stroke="#001057"></path><path d="M667 112.6L602 94.7L616 179.4Z" fill="#00197a" stroke="#00197a"></path><path d="M581 99.6L569 51.7L579 102.6Z" fill="#00219e" stroke="#00219e"></path><path d="M662 462.4L669 457.6L665 422.6Z" fill="#000b46" stroke="#000b46"></path><path d="M723 397.6L713 362.7L664 375.9Z" fill="#002ac4" stroke="#002ac4"></path><path d="M308 64.7L339 114.6L351 87.7Z" fill="#00219e" stroke="#00219e"></path><path d="M308 64.7L252 125.6L339 114.6Z" fill="#002ac4" stroke="#002ac4"></path><path d="M248 163.6L197 175.4L245 197.3Z" fill="#001568" stroke="#001568"></path><path d="M447 53.7L418 43.9L417 60.9Z" fill="#002ac4" stroke="#002ac4"></path><path d="M417 60.9L418 43.9L351 87.7Z" fill="#001568" stroke="#001568"></path><path d="M440 0L418 43.9L447 53.7Z" fill="#00219e" stroke="#00219e"></path><path d="M440 0L447 53.7L472 0Z" fill="#0025b1" stroke="#0025b1"></path><path d="M166 282L176 323.9L199 285.1Z" fill="#001568" stroke="#001568"></path><path d="M186 325.9L156 395.7L204 401.7Z" fill="#00219e" stroke="#00219e"></path><path d="M166 282L199 285.1L192 273Z" fill="#00219e" stroke="#00219e"></path><path d="M233 449.6L239 488.4L265 502.3Z" fill="#002ac4" stroke="#002ac4"></path><path d="M246 544.3L324 557.1L326 540.1Z" fill="#002ac4" stroke="#002ac4"></path><path d="M185 454.6L233 449.6L217 417.6Z" fill="#001d8c" stroke="#001d8c"></path><path d="M723 397.6L664 375.9L672 415.7Z" fill="#002ed7" stroke="#002ed7"></path><path d="M246 544.3L326 540.1L265 502.3Z" fill="#00219e" stroke="#00219e"></path><path d="M326 540.1L387 582.1L342 520.3Z" fill="#020036" stroke="#020036"></path><path d="M621 531.1L645 500.4L595 497.3Z" fill="#001057" stroke="#001057"></path><path d="M662 462.4L685 518.3L669 457.6Z" fill="#00219e" stroke="#00219e"></path><path d="M324 557.1L387 582.1L326 540.1Z" fill="#020036" stroke="#020036"></path><path d="M165 233.3L192 273L202 238.1Z" fill="#0025b1" stroke="#0025b1"></path><path d="M165 233.3L166 282L192 273Z" fill="#002ac4" stroke="#002ac4"></path><path d="M526 553.1L621 531.1L595 497.3Z" fill="#001568" stroke="#001568"></path><path d="M309 33.9L308 64.7L351 87.7Z" fill="#000b46" stroke="#000b46"></path><path d="M411 600L477 592.1L410 517.1Z" fill="#001057" stroke="#001057"></path><path d="M580 600L627 538.3L621 531.1Z" fill="#001568" stroke="#001568"></path><path d="M169 187.3L197 175.4L179 147.6Z" fill="#002ac4" stroke="#002ac4"></path><path d="M179 147.6L197 175.4L248 163.6Z" fill="#001d8c" stroke="#001d8c"></path><path d="M741 295L728 279L686 309.9Z" fill="#0025b1" stroke="#0025b1"></path><path d="M693 267.1L701 184.4L646 252.1Z" fill="#0025b1" stroke="#0025b1"></path><path d="M728 279L723 247.1L693 267.1Z" fill="#0025b1" stroke="#0025b1"></path><path d="M723 247.1L701 184.4L693 267.1Z" fill="#000b46" stroke="#000b46"></path><path d="M602 94.7L569 51.7L581 99.6Z" fill="#020036" stroke="#020036"></path><path d="M472 0L447 53.7L474 50.9Z" fill="#0032eb" stroke="#0032eb"></path><path d="M597 43.9L569 51.7L602 94.7Z" fill="#00219e" stroke="#00219e"></path><path d="M728 402.7L672 415.7L724 451.4Z" fill="#00197a" stroke="#00197a"></path><path d="M728 402.7L723 397.6L672 415.7Z" fill="#002ed7" stroke="#002ed7"></path><path d="M713 362.7L738 345.9L686 309.9Z" fill="#0025b1" stroke="#0025b1"></path><path d="M621 531.1L652 522.1L645 500.4Z" fill="#0032eb" stroke="#0032eb"></path><path d="M645 500.4L685 518.3L662 462.4Z" fill="#000b46" stroke="#000b46"></path><path d="M580 600L621 531.1L526 553.1Z" fill="#001568" stroke="#001568"></path><path d="M387 582.1L411 600L410 517.1Z" fill="#0032eb" stroke="#0032eb"></path><path d="M377 600L411 600L387 582.1Z" fill="#020036" stroke="#020036"></path><path d="M169 187.3L165 233.3L202 238.1Z" fill="#00219e" stroke="#00219e"></path><path d="M723 397.6L738 345.9L713 362.7Z" fill="#002ed7" stroke="#002ed7"></path><path d="M411 600L504 600L477 592.1Z" fill="#00219e" stroke="#00219e"></path><path d="M477 592.1L504 600L526 553.1Z" fill="#00219e" stroke="#00219e"></path><path d="M627 538.3L652 522.1L621 531.1Z" fill="#0025b1" stroke="#0025b1"></path><path d="M728 279L752 248.3L723 247.1Z" fill="#020036" stroke="#020036"></path><path d="M750 197.3L724 167.4L701 184.4Z" fill="#002ed7" stroke="#002ed7"></path><path d="M738 345.9L741 295L686 309.9Z" fill="#00219e" stroke="#00219e"></path><path d="M504 600L510 600L526 553.1Z" fill="#001568" stroke="#001568"></path><path d="M328 600L377 600L324 557.1Z" fill="#0025b1" stroke="#0025b1"></path><path d="M324 557.1L377 600L387 582.1Z" fill="#0025b1" stroke="#0025b1"></path><path d="M724 451.4L672 415.7L669 457.6Z" fill="#00219e" stroke="#00219e"></path><path d="M723 397.6L777 380.9L738 345.9Z" fill="#002ed7" stroke="#002ed7"></path><path d="M155 417.7L185 454.6L204 401.7Z" fill="#002ac4" stroke="#002ac4"></path><path d="M204 401.7L185 454.6L217 417.6Z" fill="#002ac4" stroke="#002ac4"></path><path d="M239 488.4L218 504.4L265 502.3Z" fill="#020036" stroke="#020036"></path><path d="M156 395.7L186 325.9L176 323.9Z" fill="#00219e" stroke="#00219e"></path><path d="M701 184.4L667 112.6L616 179.4Z" fill="#001568" stroke="#001568"></path><path d="M667 112.6L648 92.6L602 94.7Z" fill="#0025b1" stroke="#0025b1"></path><path d="M185 454.6L218 504.4L239 488.4Z" fill="#020036" stroke="#020036"></path><path d="M597 43.9L559 31.9L569 51.7Z" fill="#0025b1" stroke="#0025b1"></path><path d="M569 51.7L559 31.9L496 52.7Z" fill="#00219e" stroke="#00219e"></path><path d="M120 368.7L156 395.7L176 323.9Z" fill="#0032eb" stroke="#0032eb"></path><path d="M155 417.7L156 395.7L122 381.9Z" fill="#000b46" stroke="#000b46"></path><path d="M179 147.6L248 163.6L252 125.6Z" fill="#0032eb" stroke="#0032eb"></path><path d="M197 175.4L169 187.3L202 238.1Z" fill="#00197a" stroke="#00197a"></path><path d="M627 538.3L640 546.1L652 522.1Z" fill="#001d8c" stroke="#001d8c"></path><path d="M711 513.3L724 451.4L669 457.6Z" fill="#0032eb" stroke="#0032eb"></path><path d="M580 600L640 546.1L627 538.3Z" fill="#000b46" stroke="#000b46"></path><path d="M667 112.6L653 86.7L648 92.6Z" fill="#001057" stroke="#001057"></path><path d="M648 92.6L597 43.9L602 94.7Z" fill="#020036" stroke="#020036"></path><path d="M218 504.4L246 544.3L265 502.3Z" fill="#020036" stroke="#020036"></path><path d="M653 86.7L597 43.9L648 92.6Z" fill="#001057" stroke="#001057"></path><path d="M351 8.9L351 87.7L418 43.9Z" fill="#0025b1" stroke="#0025b1"></path><path d="M351 8.9L309 33.9L351 87.7Z" fill="#001d8c" stroke="#001d8c"></path><path d="M260 50.7L232 75.7L252 125.6Z" fill="#001d8c" stroke="#001d8c"></path><path d="M156 395.7L155 417.7L204 401.7Z" fill="#001568" stroke="#001568"></path><path d="M185 454.6L172 506.3L218 504.4Z" fill="#0032eb" stroke="#0032eb"></path><path d="M218 504.4L225 578.1L246 544.3Z" fill="#002ed7" stroke="#002ed7"></path><path d="M472 0L474 50.9L496 52.7Z" fill="#00219e" stroke="#00219e"></path><path d="M685 518.3L645 500.4L652 522.1Z" fill="#020036" stroke="#020036"></path><path d="M802 319L741 295L738 345.9Z" fill="#001568" stroke="#001568"></path><path d="M276 600L328 600L324 557.1Z" fill="#002ac4" stroke="#002ac4"></path><path d="M532 0L472 0L496 52.7Z" fill="#001d8c" stroke="#001d8c"></path><path d="M532 0L496 52.7L559 31.9Z" fill="#0032eb" stroke="#0032eb"></path><path d="M232 75.7L179 147.6L252 125.6Z" fill="#0025b1" stroke="#0025b1"></path><path d="M781 286.1L752 248.3L741 295Z" fill="#001568" stroke="#001568"></path><path d="M741 295L752 248.3L728 279Z" fill="#00197a" stroke="#00197a"></path><path d="M701 184.4L724 167.4L667 112.6Z" fill="#001568" stroke="#001568"></path><path d="M667 112.6L684 103.7L653 86.7Z" fill="#002ac4" stroke="#002ac4"></path><path d="M781 286.1L741 295L802 319Z" fill="#0032eb" stroke="#0032eb"></path><path d="M750 197.3L701 184.4L723 247.1Z" fill="#0025b1" stroke="#0025b1"></path><path d="M653 86.7L631 23.9L597 43.9Z" fill="#00219e" stroke="#00219e"></path><path d="M724 167.4L684 103.7L667 112.6Z" fill="#000b46" stroke="#000b46"></path><path d="M640 546.1L685 518.3L652 522.1Z" fill="#001d8c" stroke="#001d8c"></path><path d="M354 0L351 8.9L418 43.9Z" fill="#020036" stroke="#020036"></path><path d="M260 50.7L308 64.7L309 33.9Z" fill="#020036" stroke="#020036"></path><path d="M260 50.7L252 125.6L308 64.7Z" fill="#00197a" stroke="#00197a"></path><path d="M510 600L580 600L526 553.1Z" fill="#00197a" stroke="#00197a"></path><path d="M700 600L711 513.3L685 518.3Z" fill="#002ed7" stroke="#002ed7"></path><path d="M250 38.9L260 50.7L287 0Z" fill="#0032eb" stroke="#0032eb"></path><path d="M684 103.7L664 76.7L653 86.7Z" fill="#0032eb" stroke="#0032eb"></path><path d="M570 0L559 31.9L597 43.9Z" fill="#001d8c" stroke="#001d8c"></path><path d="M570 0L532 0L559 31.9Z" fill="#000b46" stroke="#000b46"></path><path d="M250 38.9L250 52.9L260 50.7Z" fill="#0025b1" stroke="#0025b1"></path><path d="M260 50.7L250 52.9L232 75.7Z" fill="#00197a" stroke="#00197a"></path><path d="M440 0L354 0L418 43.9Z" fill="#0025b1" stroke="#0025b1"></path><path d="M351 8.9L319 0L309 33.9Z" fill="#000b46" stroke="#000b46"></path><path d="M752 248.3L750 197.3L723 247.1Z" fill="#00219e" stroke="#00219e"></path><path d="M724 167.4L704 97.6L684 103.7Z" fill="#002ac4" stroke="#002ac4"></path><path d="M120 368.7L176 323.9L113 321Z" fill="#002ed7" stroke="#002ed7"></path><path d="M122 381.9L146 441.6L155 417.7Z" fill="#002ac4" stroke="#002ac4"></path><path d="M155 417.7L146 441.6L185 454.6Z" fill="#000b46" stroke="#000b46"></path><path d="M176 323.9L166 282L113 321Z" fill="#0025b1" stroke="#0025b1"></path><path d="M166 282L165 233.3L109 294.1Z" fill="#002ed7" stroke="#002ed7"></path><path d="M113 321L166 282L109 294.1Z" fill="#00219e" stroke="#00219e"></path><path d="M120 368.7L122 381.9L156 395.7Z" fill="#001d8c" stroke="#001d8c"></path><path d="M109 294.1L165 233.3L128 195.4Z" fill="#0032eb" stroke="#0032eb"></path><path d="M685 518.3L711 513.3L669 457.6Z" fill="#000b46" stroke="#000b46"></path><path d="M700 600L685 518.3L640 546.1Z" fill="#000b46" stroke="#000b46"></path><path d="M249 589.1L276 600L246 544.3Z" fill="#002ed7" stroke="#002ed7"></path><path d="M246 544.3L276 600L324 557.1Z" fill="#001057" stroke="#001057"></path><path d="M620 0L570 0L597 43.9Z" fill="#002ac4" stroke="#002ac4"></path><path d="M287 0L260 50.7L309 33.9Z" fill="#00197a" stroke="#00197a"></path><path d="M250 52.9L250 38.9L232 75.7Z" fill="#00219e" stroke="#00219e"></path><path d="M232 75.7L152 126.6L179 147.6Z" fill="#0025b1" stroke="#0025b1"></path><path d="M684 103.7L686 74.9L664 76.7Z" fill="#00219e" stroke="#00219e"></path><path d="M664 76.7L631 23.9L653 86.7Z" fill="#001d8c" stroke="#001d8c"></path><path d="M741 99.7L704 97.6L724 167.4Z" fill="#001d8c" stroke="#001d8c"></path><path d="M354 0L319 0L351 8.9Z" fill="#020036" stroke="#020036"></path><path d="M154 481.4L185 454.6L146 441.6Z" fill="#001057" stroke="#001057"></path><path d="M154 481.4L172 506.3L185 454.6Z" fill="#002ac4" stroke="#002ac4"></path><path d="M777 380.9L723 397.6L728 402.7Z" fill="#000b46" stroke="#000b46"></path><path d="M752 248.3L801 205.4L750 197.3Z" fill="#001568" stroke="#001568"></path><path d="M777 380.9L728 402.7L785 451.6Z" fill="#0032eb" stroke="#0032eb"></path><path d="M128 195.4L165 233.3L169 187.3Z" fill="#002ac4" stroke="#002ac4"></path><path d="M113 321L64 376.9L120 368.7Z" fill="#00197a" stroke="#00197a"></path><path d="M704 97.6L686 74.9L684 103.7Z" fill="#001d8c" stroke="#001d8c"></path><path d="M138 502.4L154 481.4L117 474.4Z" fill="#001057" stroke="#001057"></path><path d="M127 165.4L169 187.3L179 147.6Z" fill="#020036" stroke="#020036"></path><path d="M127 165.4L128 195.4L169 187.3Z" fill="#002ac4" stroke="#002ac4"></path><path d="M785 451.6L728 402.7L724 451.4Z" fill="#00197a" stroke="#00197a"></path><path d="M225 578.1L249 589.1L246 544.3Z" fill="#020036" stroke="#020036"></path><path d="M682 28.9L631 23.9L664 76.7Z" fill="#00197a" stroke="#00197a"></path><path d="M172 506.3L225 578.1L218 504.4Z" fill="#001568" stroke="#001568"></path><path d="M167 60.7L152 126.6L232 75.7Z" fill="#020036" stroke="#020036"></path><path d="M82 200.4L98 296.1L109 294.1Z" fill="#001568" stroke="#001568"></path><path d="M109 294.1L98 296.1L113 321Z" fill="#001057" stroke="#001057"></path><path d="M91 465.6L146 441.6L122 381.9Z" fill="#00219e" stroke="#00219e"></path><path d="M319 0L287 0L309 33.9Z" fill="#002ac4" stroke="#002ac4"></path><path d="M192 0L167 60.7L232 75.7Z" fill="#00197a" stroke="#00197a"></path><path d="M248 600L249 600L249 589.1Z" fill="#001568" stroke="#001568"></path><path d="M249 589.1L249 600L276 600Z" fill="#001d8c" stroke="#001d8c"></path><path d="M225 578.1L248 600L249 589.1Z" fill="#002ac4" stroke="#002ac4"></path><path d="M152 126.6L127 165.4L179 147.6Z" fill="#00219e" stroke="#00219e"></path><path d="M128 195.4L82 200.4L109 294.1Z" fill="#002ed7" stroke="#002ed7"></path><path d="M580 600L647 600L640 546.1Z" fill="#0025b1" stroke="#0025b1"></path><path d="M777 380.9L802 319L738 345.9Z" fill="#002ed7" stroke="#002ed7"></path><path d="M766 131.4L724 167.4L750 197.3Z" fill="#00219e" stroke="#00219e"></path><path d="M668 0L620 0L631 23.9Z" fill="#002ac4" stroke="#002ac4"></path><path d="M631 23.9L620 0L597 43.9Z" fill="#0032eb" stroke="#0032eb"></path><path d="M172 506.3L215 585.1L225 578.1Z" fill="#000b46" stroke="#000b46"></path><path d="M225 578.1L215 585.1L248 600Z" fill="#001d8c" stroke="#001d8c"></path><path d="M210 600L215 585.1L124 572.1Z" fill="#020036" stroke="#020036"></path><path d="M756 550.1L750 505.4L711 513.3Z" fill="#00219e" stroke="#00219e"></path><path d="M711 513.3L750 505.4L724 451.4Z" fill="#000b46" stroke="#000b46"></path><path d="M777 380.9L806 375.7L802 319Z" fill="#002ac4" stroke="#002ac4"></path><path d="M117 474.4L154 481.4L146 441.6Z" fill="#001568" stroke="#001568"></path><path d="M154 481.4L138 502.4L172 506.3Z" fill="#00219e" stroke="#00219e"></path><path d="M117 474.4L146 441.6L91 465.6Z" fill="#020036" stroke="#020036"></path><path d="M287 0L259 0L250 38.9Z" fill="#001d8c" stroke="#001d8c"></path><path d="M764 129.6L724 167.4L766 131.4Z" fill="#00219e" stroke="#00219e"></path><path d="M764 129.6L741 99.7L724 167.4Z" fill="#001057" stroke="#001057"></path><path d="M704 97.6L737 50.9L686 74.9Z" fill="#001057" stroke="#001057"></path><path d="M686 74.9L682 28.9L664 76.7Z" fill="#0025b1" stroke="#0025b1"></path><path d="M822 416.7L806 375.7L777 380.9Z" fill="#001057" stroke="#001057"></path><path d="M766 131.4L750 197.3L795 143.6Z" fill="#020036" stroke="#020036"></path><path d="M91 465.6L122 381.9L64 376.9Z" fill="#001d8c" stroke="#001d8c"></path><path d="M770 486.4L785 451.6L724 451.4Z" fill="#0032eb" stroke="#0032eb"></path><path d="M801 205.4L752 248.3L831 236.3Z" fill="#002ac4" stroke="#002ac4"></path><path d="M764 129.6L779 57.9L741 99.7Z" fill="#020036" stroke="#020036"></path><path d="M737 50.9L682 28.9L686 74.9Z" fill="#000b46" stroke="#000b46"></path><path d="M750 505.4L770 486.4L724 451.4Z" fill="#001d8c" stroke="#001d8c"></path><path d="M806 199.3L801 205.4L831 236.3Z" fill="#020036" stroke="#020036"></path><path d="M831 236.3L752 248.3L781 286.1Z" fill="#001d8c" stroke="#001d8c"></path><path d="M124 572.1L215 585.1L172 506.3Z" fill="#002ed7" stroke="#002ed7"></path><path d="M215 585.1L210 600L248 600Z" fill="#00197a" stroke="#00197a"></path><path d="M122 532.3L172 506.3L138 502.4Z" fill="#002ed7" stroke="#002ed7"></path><path d="M192 0L232 75.7L250 38.9Z" fill="#0032eb" stroke="#0032eb"></path><path d="M63 158.6L92 176.3L127 165.4Z" fill="#00219e" stroke="#00219e"></path><path d="M832 286.1L781 286.1L802 319Z" fill="#000b46" stroke="#000b46"></path><path d="M801 205.4L806 199.3L750 197.3Z" fill="#000b46" stroke="#000b46"></path><path d="M63 158.6L127 165.4L100 86.7Z" fill="#00219e" stroke="#00219e"></path><path d="M127 165.4L92 176.3L128 195.4Z" fill="#000b46" stroke="#000b46"></path><path d="M92 176.3L82 200.4L128 195.4Z" fill="#002ac4" stroke="#002ac4"></path><path d="M98 296.1L38 359.9L113 321Z" fill="#020036" stroke="#020036"></path><path d="M82 200.4L65 286.1L98 296.1Z" fill="#002ac4" stroke="#002ac4"></path><path d="M712 0L668 0L682 28.9Z" fill="#0025b1" stroke="#0025b1"></path><path d="M682 28.9L668 0L631 23.9Z" fill="#00197a" stroke="#00197a"></path><path d="M737 50.9L704 97.6L741 99.7Z" fill="#0025b1" stroke="#0025b1"></path><path d="M647 600L700 600L640 546.1Z" fill="#001568" stroke="#001568"></path><path d="M750 505.4L787 529.1L770 486.4Z" fill="#001d8c" stroke="#001d8c"></path><path d="M64 376.9L122 381.9L120 368.7Z" fill="#002ed7" stroke="#002ed7"></path><path d="M117 474.4L122 532.3L138 502.4Z" fill="#000b46" stroke="#000b46"></path><path d="M38 359.9L64 376.9L113 321Z" fill="#00197a" stroke="#00197a"></path><path d="M876 300L802 319L879 350.9Z" fill="#002ed7" stroke="#002ed7"></path><path d="M876 300L832 286.1L802 319Z" fill="#002ac4" stroke="#002ac4"></path><path d="M806 199.3L795 143.6L750 197.3Z" fill="#002ac4" stroke="#002ac4"></path><path d="M829 112.7L779 57.9L764 129.6Z" fill="#00219e" stroke="#00219e"></path><path d="M832 149.4L795 143.6L806 199.3Z" fill="#020036" stroke="#020036"></path><path d="M779 57.9L737 50.9L741 99.7Z" fill="#001d8c" stroke="#001d8c"></path><path d="M820 449.6L822 416.7L785 451.6Z" fill="#001057" stroke="#001057"></path><path d="M785 451.6L822 416.7L777 380.9Z" fill="#002ed7" stroke="#002ed7"></path><path d="M820 449.6L785 451.6L832 479.3Z" fill="#002ed7" stroke="#002ed7"></path><path d="M720 600L756 550.1L711 513.3Z" fill="#001568" stroke="#001568"></path><path d="M73 527.3L122 532.3L117 474.4Z" fill="#0025b1" stroke="#0025b1"></path><path d="M840 259.1L831 236.3L781 286.1Z" fill="#002ac4" stroke="#002ac4"></path><path d="M876 300L840 259.1L832 286.1Z" fill="#000b46" stroke="#000b46"></path><path d="M832 286.1L840 259.1L781 286.1Z" fill="#020036" stroke="#020036"></path><path d="M829 112.7L766 131.4L795 143.6Z" fill="#020036" stroke="#020036"></path><path d="M700 600L720 600L711 513.3Z" fill="#00197a" stroke="#00197a"></path><path d="M832 479.3L785 451.6L770 486.4Z" fill="#000b46" stroke="#000b46"></path><path d="M879 350.9L802 319L806 375.7Z" fill="#000b46" stroke="#000b46"></path><path d="M794 587.1L772 543.3L756 550.1Z" fill="#001d8c" stroke="#001d8c"></path><path d="M756 550.1L772 543.3L750 505.4Z" fill="#002ed7" stroke="#002ed7"></path><path d="M259 0L192 0L250 38.9Z" fill="#020036" stroke="#020036"></path><path d="M167 60.7L125 55.9L152 126.6Z" fill="#0025b1" stroke="#0025b1"></path><path d="M794 587.1L787 529.1L772 543.3Z" fill="#000b46" stroke="#000b46"></path><path d="M772 543.3L787 529.1L750 505.4Z" fill="#001d8c" stroke="#001d8c"></path><path d="M832 479.3L832 436.6L820 449.6Z" fill="#001568" stroke="#001568"></path><path d="M820 449.6L832 436.6L822 416.7Z" fill="#00197a" stroke="#00197a"></path><path d="M82 200.4L40 277L65 286.1Z" fill="#0032eb" stroke="#0032eb"></path><path d="M65 286.1L38 359.9L98 296.1Z" fill="#001d8c" stroke="#001d8c"></path><path d="M0 224.1L40 277L82 200.4Z" fill="#00219e" stroke="#00219e"></path><path d="M721 0L712 0L737 50.9Z" fill="#002ed7" stroke="#002ed7"></path><path d="M737 50.9L712 0L682 28.9Z" fill="#0032eb" stroke="#0032eb"></path><path d="M143 14.9L125 55.9L167 60.7Z" fill="#001057" stroke="#001057"></path><path d="M92 176.3L55 165.6L82 200.4Z" fill="#020036" stroke="#020036"></path><path d="M40 277L38 359.9L65 286.1Z" fill="#0032eb" stroke="#0032eb"></path><path d="M64 376.9L36 421.6L91 465.6Z" fill="#0025b1" stroke="#0025b1"></path><path d="M83 547.1L124 572.1L122 532.3Z" fill="#00197a" stroke="#00197a"></path><path d="M100 86.7L127 165.4L152 126.6Z" fill="#001568" stroke="#001568"></path><path d="M125 55.9L100 86.7L152 126.6Z" fill="#00197a" stroke="#00197a"></path><path d="M122 532.3L124 572.1L172 506.3Z" fill="#020036" stroke="#020036"></path><path d="M73 527.3L117 474.4L91 465.6Z" fill="#000b46" stroke="#000b46"></path><path d="M798 0L721 0L737 50.9Z" fill="#020036" stroke="#020036"></path><path d="M22 103.7L55 165.6L63 158.6Z" fill="#00197a" stroke="#00197a"></path><path d="M63 158.6L55 165.6L92 176.3Z" fill="#001568" stroke="#001568"></path><path d="M832 149.4L806 199.3L900 189.3Z" fill="#00197a" stroke="#00197a"></path><path d="M829 112.7L764 129.6L766 131.4Z" fill="#00219e" stroke="#00219e"></path><path d="M900 189.3L806 199.3L831 236.3Z" fill="#001568" stroke="#001568"></path><path d="M192 0L163 0L167 60.7Z" fill="#002ac4" stroke="#002ac4"></path><path d="M125 55.9L89 67.9L100 86.7Z" fill="#0025b1" stroke="#0025b1"></path><path d="M787 529.1L832 479.3L770 486.4Z" fill="#002ed7" stroke="#002ed7"></path><path d="M879 350.9L806 375.7L822 416.7Z" fill="#00219e" stroke="#00219e"></path><path d="M163 0L143 14.9L167 60.7Z" fill="#00219e" stroke="#00219e"></path><path d="M18 361.7L36 421.6L38 359.9Z" fill="#0025b1" stroke="#0025b1"></path><path d="M38 359.9L36 421.6L64 376.9Z" fill="#00219e" stroke="#00219e"></path><path d="M97 600L127 600L124 572.1Z" fill="#002ed7" stroke="#002ed7"></path><path d="M124 572.1L127 600L210 600Z" fill="#020036" stroke="#020036"></path><path d="M0 346.9L18 361.7L38 359.9Z" fill="#0032eb" stroke="#0032eb"></path><path d="M0 346.9L38 359.9L40 277Z" fill="#002ac4" stroke="#002ac4"></path><path d="M879 350.9L822 416.7L900 375.7Z" fill="#002ac4" stroke="#002ac4"></path><path d="M840 259.1L900 243.1L831 236.3Z" fill="#0025b1" stroke="#0025b1"></path><path d="M58 502.3L73 527.3L91 465.6Z" fill="#001568" stroke="#001568"></path><path d="M100 86.7L81 78.7L63 158.6Z" fill="#000b46" stroke="#000b46"></path><path d="M110 0L89 67.9L125 55.9Z" fill="#001057" stroke="#001057"></path><path d="M866 109.6L829 112.7L832 149.4Z" fill="#001057" stroke="#001057"></path><path d="M832 149.4L829 112.7L795 143.6Z" fill="#0032eb" stroke="#0032eb"></path><path d="M23 471.4L58 502.3L91 465.6Z" fill="#00197a" stroke="#00197a"></path><path d="M23 471.4L91 465.6L36 421.6Z" fill="#000b46" stroke="#000b46"></path><path d="M89 67.9L81 78.7L100 86.7Z" fill="#001568" stroke="#001568"></path><path d="M90 580.1L83 547.1L49 600Z" fill="#00197a" stroke="#00197a"></path><path d="M73 527.3L83 547.1L122 532.3Z" fill="#001d8c" stroke="#001d8c"></path><path d="M900 375.7L822 416.7L832 436.6Z" fill="#001568" stroke="#001568"></path><path d="M787 529.1L854 547.1L832 479.3Z" fill="#002ed7" stroke="#002ed7"></path><path d="M900 326L876 300L879 350.9Z" fill="#00219e" stroke="#00219e"></path><path d="M720 600L794 587.1L756 550.1Z" fill="#0025b1" stroke="#0025b1"></path><path d="M49 600L83 547.1L73 527.3Z" fill="#001057" stroke="#001057"></path><path d="M83 547.1L90 580.1L124 572.1Z" fill="#0032eb" stroke="#0032eb"></path><path d="M13 187.3L82 200.4L55 165.6Z" fill="#001057" stroke="#001057"></path><path d="M0 224.1L0 277L40 277Z" fill="#00219e" stroke="#00219e"></path><path d="M0 277L0 346.9L40 277Z" fill="#001057" stroke="#001057"></path><path d="M18 361.7L0 361.7L36 421.6Z" fill="#000b46" stroke="#000b46"></path><path d="M0 346.9L0 361.7L18 361.7Z" fill="#001568" stroke="#001568"></path><path d="M58 502.3L0 521.3L73 527.3Z" fill="#00197a" stroke="#00197a"></path><path d="M0 188.3L13 187.3L0 152.6Z" fill="#020036" stroke="#020036"></path><path d="M720 600L793 600L794 587.1Z" fill="#00219e" stroke="#00219e"></path><path d="M794 587.1L854 547.1L787 529.1Z" fill="#0025b1" stroke="#0025b1"></path><path d="M0 435.6L23 471.4L36 421.6Z" fill="#001568" stroke="#001568"></path><path d="M90 580.1L97 600L124 572.1Z" fill="#000b46" stroke="#000b46"></path><path d="M49 600L97 600L90 580.1Z" fill="#001568" stroke="#001568"></path><path d="M13 187.3L0 224.1L82 200.4Z" fill="#001d8c" stroke="#001d8c"></path><path d="M900 326L879 350.9L900 375.7Z" fill="#0032eb" stroke="#0032eb"></path><path d="M900 326L900 317.9L876 300Z" fill="#00219e" stroke="#00219e"></path><path d="M876 300L900 243.1L840 259.1Z" fill="#0025b1" stroke="#0025b1"></path><path d="M900 375.7L832 436.6L900 456.4Z" fill="#002ac4" stroke="#002ac4"></path><path d="M163 0L110 0L143 14.9Z" fill="#020036" stroke="#020036"></path><path d="M143 14.9L110 0L125 55.9Z" fill="#001568" stroke="#001568"></path><path d="M0 57.9L22 103.7L81 78.7Z" fill="#002ed7" stroke="#002ed7"></path><path d="M0 188.3L0 198.4L13 187.3Z" fill="#001057" stroke="#001057"></path><path d="M900 456.4L832 436.6L893 477.3Z" fill="#020036" stroke="#020036"></path><path d="M900 317.9L900 243.1L876 300Z" fill="#020036" stroke="#020036"></path><path d="M13 187.3L0 198.4L0 224.1Z" fill="#001d8c" stroke="#001d8c"></path><path d="M13 187.3L55 165.6L0 152.6Z" fill="#020036" stroke="#020036"></path><path d="M22 103.7L63 158.6L81 78.7Z" fill="#00197a" stroke="#00197a"></path><path d="M0 361.7L0 435.6L36 421.6Z" fill="#020036" stroke="#020036"></path><path d="M23 471.4L0 490.4L58 502.3Z" fill="#0025b1" stroke="#0025b1"></path><path d="M900 146.6L866 109.6L832 149.4Z" fill="#002ac4" stroke="#002ac4"></path><path d="M829 112.7L841 51.9L779 57.9Z" fill="#001d8c" stroke="#001d8c"></path><path d="M779 57.9L798 0L737 50.9Z" fill="#001568" stroke="#001568"></path><path d="M793 600L812 600L794 587.1Z" fill="#00197a" stroke="#00197a"></path><path d="M900 243.1L900 205.4L831 236.3Z" fill="#0025b1" stroke="#0025b1"></path><path d="M841 51.9L798 0L779 57.9Z" fill="#000b46" stroke="#000b46"></path><path d="M900 205.4L900 189.3L831 236.3Z" fill="#002ed7" stroke="#002ed7"></path><path d="M0 57.9L81 78.7L0 56.7Z" fill="#002ac4" stroke="#002ac4"></path><path d="M823 600L854 547.1L794 587.1Z" fill="#002ac4" stroke="#002ac4"></path><path d="M866 109.6L841 51.9L829 112.7Z" fill="#020036" stroke="#020036"></path><path d="M22 103.7L0 152.6L55 165.6Z" fill="#001d8c" stroke="#001d8c"></path><path d="M812 600L823 600L794 587.1Z" fill="#002ed7" stroke="#002ed7"></path><path d="M893 477.3L832 436.6L832 479.3Z" fill="#020036" stroke="#020036"></path><path d="M889 501.4L893 477.3L832 479.3Z" fill="#0025b1" stroke="#0025b1"></path><path d="M893 477.3L900 457.6L900 456.4Z" fill="#001568" stroke="#001568"></path><path d="M0 435.6L0 490.4L23 471.4Z" fill="#000b46" stroke="#000b46"></path><path d="M110 0L79 0L89 67.9Z" fill="#001568" stroke="#001568"></path><path d="M900 146.6L880 103.7L866 109.6Z" fill="#002ac4" stroke="#002ac4"></path><path d="M866 109.6L880 103.7L841 51.9Z" fill="#0025b1" stroke="#0025b1"></path><path d="M854 547.1L889 501.4L832 479.3Z" fill="#0032eb" stroke="#0032eb"></path><path d="M893 477.3L900 537.1L900 457.6Z" fill="#0025b1" stroke="#0025b1"></path><path d="M900 537.1L889 501.4L854 547.1Z" fill="#000b46" stroke="#000b46"></path><path d="M900 189.3L900 146.6L832 149.4Z" fill="#020036" stroke="#020036"></path><path d="M0 585.1L49 600L73 527.3Z" fill="#002ac4" stroke="#002ac4"></path><path d="M0 490.4L0 521.3L58 502.3Z" fill="#001568" stroke="#001568"></path><path d="M841 51.9L833 0L798 0Z" fill="#002ac4" stroke="#002ac4"></path><path d="M838 0L833 0L841 51.9Z" fill="#0032eb" stroke="#0032eb"></path><path d="M838 0L841 51.9L900 14.9Z" fill="#00219e" stroke="#00219e"></path><path d="M900 45.7L841 51.9L880 103.7Z" fill="#00219e" stroke="#00219e"></path><path d="M900 549.3L900 537.1L854 547.1Z" fill="#00197a" stroke="#00197a"></path><path d="M889 501.4L900 537.1L893 477.3Z" fill="#002ac4" stroke="#002ac4"></path><path d="M0 56.7L81 78.7L18 18.9Z" fill="#002ac4" stroke="#002ac4"></path><path d="M22 103.7L0 57.9L0 152.6Z" fill="#001568" stroke="#001568"></path><path d="M900 600L900 549.3L854 547.1Z" fill="#002ac4" stroke="#002ac4"></path><path d="M18 18.9L81 78.7L89 67.9Z" fill="#00197a" stroke="#00197a"></path><path d="M79 0L18 18.9L89 67.9Z" fill="#0025b1" stroke="#0025b1"></path><path d="M0 521.3L0 585.1L73 527.3Z" fill="#001d8c" stroke="#001d8c"></path><path d="M900 146.6L900 45.7L880 103.7Z" fill="#001057" stroke="#001057"></path><path d="M0 585.1L0 600L49 600Z" fill="#0025b1" stroke="#0025b1"></path><path d="M823 600L900 600L854 547.1Z" fill="#0025b1" stroke="#0025b1"></path><path d="M900 45.7L900 14.9L841 51.9Z" fill="#002ac4" stroke="#002ac4"></path><path d="M79 0L0 0L18 18.9Z" fill="#0025b1" stroke="#0025b1"></path><path d="M18 18.9L0 0L0 56.7Z" fill="#001568" stroke="#001568"></path><path d="M900 14.9L900 0L838 0Z" fill="#000b46" stroke="#000b46"></path></g></svg>