<svg id="visual" viewBox="0 0 900 600" width="900" height="600" xmlns="http://www.w3.org/2000/svg" xmlns:xlink="http://www.w3.org/1999/xlink" version="1.1"><path d="M0 43L15 43C30 43 60 43 90 41C120 39 150 35 180 37C210 39 240 47 270 52C300 57 330 59 360 55C390 51 420 41 450 36C480 31 510 31 540 29C570 27 600 23 630 22C660 21 690 23 720 27C750 31 780 37 810 42C840 47 870 51 885 53L900 55L900 0L885 0C870 0 840 0 810 0C780 0 750 0 720 0C690 0 660 0 630 0C600 0 570 0 540 0C510 0 480 0 450 0C420 0 390 0 360 0C330 0 300 0 270 0C240 0 210 0 180 0C150 0 120 0 90 0C60 0 30 0 15 0L0 0Z" fill="#ae2b25"></path><path d="M0 157L15 145C30 133 60 109 90 109C120 109 150 133 180 144C210 155 240 153 270 149C300 145 330 139 360 157C390 175 420 217 450 223C480 229 510 199 540 177C570 155 600 141 630 140C660 139 690 151 720 146C750 141 780 119 810 110C840 101 870 105 885 107L900 109L900 53L885 51C870 49 840 45 810 40C780 35 750 29 720 25C690 21 660 19 630 20C600 21 570 25 540 27C510 29 480 29 450 34C420 39 390 49 360 53C330 57 300 55 270 50C240 45 210 37 180 35C150 33 120 37 90 39C60 41 30 41 15 41L0 41Z" fill="#95140f"></path><path d="M0 205L15 190C30 175 60 145 90 142C120 139 150 163 180 179C210 195 240 203 270 199C300 195 330 179 360 193C390 207 420 251 450 262C480 273 510 251 540 228C570 205 600 181 630 177C660 173 690 189 720 181C750 173 780 141 810 127C840 113 870 117 885 119L900 121L900 107L885 105C870 103 840 99 810 108C780 117 750 139 720 144C690 149 660 137 630 138C600 139 570 153 540 175C510 197 480 227 450 221C420 215 390 173 360 155C330 137 300 143 270 147C240 151 210 153 180 142C150 131 120 107 90 107C60 107 30 131 15 143L0 155Z" fill="#7e0003"></path><path d="M0 211L15 203C30 195 60 179 90 184C120 189 150 215 180 231C210 247 240 253 270 245C300 237 330 215 360 226C390 237 420 281 450 292C480 303 510 281 540 255C570 229 600 199 630 195C660 191 690 213 720 206C750 199 780 163 810 146C840 129 870 131 885 132L900 133L900 119L885 117C870 115 840 111 810 125C780 139 750 171 720 179C690 187 660 171 630 175C600 179 570 203 540 226C510 249 480 271 450 260C420 249 390 205 360 191C330 177 300 193 270 197C240 201 210 193 180 177C150 161 120 137 90 140C60 143 30 173 15 188L0 203Z" fill="#680108"></path><path d="M0 271L15 273C30 275 60 279 90 289C120 299 150 315 180 320C210 325 240 319 270 314C300 309 330 305 360 311C390 317 420 333 450 341C480 349 510 349 540 339C570 329 600 309 630 308C660 307 690 325 720 304C750 283 780 223 810 207C840 191 870 219 885 233L900 247L900 131L885 130C870 129 840 127 810 144C780 161 750 197 720 204C690 211 660 189 630 193C600 197 570 227 540 253C510 279 480 301 450 290C420 279 390 235 360 224C330 213 300 235 270 243C240 251 210 245 180 229C150 213 120 187 90 182C60 177 30 193 15 201L0 209Z" fill="#640209"></path><path d="M0 283L15 292C30 301 60 319 90 331C120 343 150 349 180 355C210 361 240 367 270 363C300 359 330 345 360 344C390 343 420 355 450 362C480 369 510 371 540 369C570 367 600 361 630 365C660 369 690 383 720 363C750 343 780 289 810 273C840 257 870 279 885 290L900 301L900 245L885 231C870 217 840 189 810 205C780 221 750 281 720 302C690 323 660 305 630 306C600 307 570 327 540 337C510 347 480 347 450 339C420 331 390 315 360 309C330 303 300 307 270 312C240 317 210 323 180 318C150 313 120 297 90 287C60 277 30 273 15 271L0 269Z" fill="#680108"></path><path d="M0 355L15 364C30 373 60 391 90 395C120 399 150 389 180 393C210 397 240 415 270 421C300 427 330 421 360 418C390 415 420 415 450 422C480 429 510 443 540 447C570 451 600 445 630 449C660 453 690 467 720 444C750 421 780 361 810 338C840 315 870 329 885 336L900 343L900 299L885 288C870 277 840 255 810 271C780 287 750 341 720 361C690 381 660 367 630 363C600 359 570 365 540 367C510 369 480 367 450 360C420 353 390 341 360 342C330 343 300 357 270 361C240 365 210 359 180 353C150 347 120 341 90 329C60 317 30 299 15 290L0 281Z" fill="#7e0003"></path><path d="M0 439L15 443C30 447 60 455 90 464C120 473 150 483 180 489C210 495 240 497 270 499C300 501 330 503 360 498C390 493 420 481 450 486C480 491 510 513 540 512C570 511 600 487 630 486C660 485 690 507 720 486C750 465 780 401 810 389C840 377 870 417 885 437L900 457L900 341L885 334C870 327 840 313 810 336C780 359 750 419 720 442C690 465 660 451 630 447C600 443 570 449 540 445C510 441 480 427 450 420C420 413 390 413 360 416C330 419 300 425 270 419C240 413 210 395 180 391C150 387 120 397 90 393C60 389 30 371 15 362L0 353Z" fill="#95140f"></path><path d="M0 601L15 601C30 601 60 601 90 601C120 601 150 601 180 601C210 601 240 601 270 601C300 601 330 601 360 601C390 601 420 601 450 601C480 601 510 601 540 601C570 601 600 601 630 601C660 601 690 601 720 601C750 601 780 601 810 601C840 601 870 601 885 601L900 601L900 455L885 435C870 415 840 375 810 387C780 399 750 463 720 484C690 505 660 483 630 484C600 485 570 509 540 510C510 511 480 489 450 484C420 479 390 491 360 496C330 501 300 499 270 497C240 495 210 493 180 487C150 481 120 471 90 462C60 453 30 445 15 441L0 437Z" fill="#ae2b25"></path></svg>