<svg id="visual" viewBox="0 0 900 600" width="900" height="600" xmlns="http://www.w3.org/2000/svg" xmlns:xlink="http://www.w3.org/1999/xlink" version="1.1"><path d="M0 13L129 13L257 85L386 7L514 61L643 43L771 79L900 91L900 0L771 0L643 0L514 0L386 0L257 0L129 0L0 0Z" fill="#15c215"></path><path d="M0 25L129 67L257 175L386 25L514 115L643 55L771 121L900 127L900 89L771 77L643 41L514 59L386 5L257 83L129 11L0 11Z" fill="#0ea80d"></path><path d="M0 79L129 121L257 187L386 43L514 175L643 79L771 151L900 133L900 125L771 119L643 53L514 113L386 23L257 173L129 65L0 23Z" fill="#068f05"></path><path d="M0 181L129 265L257 295L386 163L514 391L643 157L771 349L900 229L900 131L771 149L643 77L514 173L386 41L257 185L129 119L0 77Z" fill="#017701"></path><path d="M0 289L129 367L257 421L386 373L514 457L643 343L771 397L900 331L900 227L771 347L643 155L514 389L386 161L257 293L129 263L0 179Z" fill="#007200"></path><path d="M0 331L129 433L257 451L386 397L514 481L643 397L771 457L900 361L900 329L771 395L643 341L514 455L386 371L257 419L129 365L0 287Z" fill="#017701"></path><path d="M0 385L129 481L257 475L386 463L514 511L643 427L771 517L900 409L900 359L771 455L643 395L514 479L386 395L257 449L129 431L0 329Z" fill="#068f05"></path><path d="M0 505L129 541L257 535L386 493L514 535L643 499L771 535L900 481L900 407L771 515L643 425L514 509L386 461L257 473L129 479L0 383Z" fill="#0ea80d"></path><path d="M0 601L129 601L257 601L386 601L514 601L643 601L771 601L900 601L900 479L771 533L643 497L514 533L386 491L257 533L129 539L0 503Z" fill="#15c215"></path></svg>